<?xml version="1.0" encoding="iso-8859-1"?>
<!-- Generator: Adobe Illustrator 19.0.0, SVG Export Plug-In . SVG Version: 6.00 Build 0)  -->
<svg xmlns="http://www.w3.org/2000/svg" xmlns:xlink="http://www.w3.org/1999/xlink" version="1.1" id="Layer_1" x="0px" y="0px" viewBox="0 0 512.001 512.001" style="enable-background:new 0 0 512.001 512.001;" xml:space="preserve" width="512" height="512">
<g id="XMLID_1378_">
	<g id="XMLID_43_">
		<path id="XMLID_44_" d="M201.68,213.61c-1.86,1.86-2.93,4.44-2.93,7.07c0,2.63,1.07,5.21,2.93,7.07c1.86,1.87,4.44,2.93,7.07,2.93    c2.63,0,5.21-1.06,7.07-2.93c1.86-1.86,2.93-4.43,2.93-7.07c0-2.63-1.07-5.21-2.93-7.07s-4.44-2.93-7.07-2.93    C206.12,210.68,203.54,211.751,201.68,213.61z"/>
		<path id="XMLID_69_" d="M502,210.684H248.752c-5.523,0-10,4.477-10,10s4.477,10,10,10H492v197.247v9.099v19.361H199.658    c-2.056-3.913-4.768-7.428-7.998-10.39c1.733-1.59,3.32-3.336,4.736-5.22h238.479c5.523,0,10-4.477,10-10    c0-11.805,9.604-21.409,21.41-21.409c5.523,0,10-4.477,10-10V287.703c0-5.523-4.477-10-10-10c-11.805,0-21.41-9.604-21.41-21.41    c0-5.523-4.477-10-10-10H130.976c-5.523,0-10,4.477-10,10c0,11.805-9.604,21.41-21.41,21.41c-5.523,0-10,4.477-10,10v36.298H74    v-55.213l38.103-38.103h56.649c5.523,0,10-4.477,10-10s-4.477-10-10-10h-36.649l75.692-75.692l35.425,35.426    c1.875,1.875,4.419,2.929,7.071,2.929s5.196-1.054,7.071-2.929l81.516-81.516l14.353,14.354c2.606,2.607,6.435,3.57,9.963,2.502    c3.528-1.066,6.184-3.986,6.911-7.6l17.345-86.184c0.661-3.282-0.365-6.677-2.732-9.044c-2.367-2.367-5.76-3.394-9.044-2.732    l-86.184,17.344c-3.613,0.728-6.534,3.383-7.6,6.912s-0.104,7.357,2.501,9.963l11.66,11.661l-45.762,45.762l-35.425-35.426    c-1.875-1.875-4.419-2.929-7.071-2.929s-5.196,1.054-7.071,2.929l-60.09,60.09c-3.905,3.905-3.905,10.237,0,14.143    c3.905,3.905,10.237,3.905,14.143,0l53.019-53.019l35.425,35.426c1.875,1.875,4.419,2.929,7.071,2.929s5.196-1.054,7.071-2.929    l59.904-59.904c3.905-3.905,3.905-10.236,0-14.142l-5.538-5.539l53.149-10.696L354.181,75.92l-8.231-8.231    c-1.875-1.875-4.419-2.929-7.071-2.929s-5.196,1.054-7.071,2.929l-81.516,81.516l-35.425-35.426    c-1.875-1.875-4.419-2.929-7.071-2.929s-5.196,1.054-7.071,2.929L39.035,275.468l-14.541-14.54l73.714-73.715    c3.905-3.905,3.905-10.237,0-14.142s-10.237-3.904-14.142,0L3.281,253.857c-1.875,1.875-2.929,4.419-2.929,7.071    c0,2.652,1.054,5.196,2.929,7.071l28.683,28.682c1.953,1.953,4.512,2.929,7.071,2.929s5.119-0.977,7.071-2.929L54,288.787v35.213    H38c-20.953,0-38,17.047-38,38c0,11.071,4.761,21.048,12.341,28C4.762,396.952,0,406.93,0,418.001s4.761,21.048,12.341,28    C4.762,452.952,0,462.93,0,474.001c0,20.953,17.047,38,38,38h26h102h336c5.523,0,10-4.477,10-10v-35.61V437.03v-9.099V220.684    C512,215.161,507.523,210.684,502,210.684z M109.566,296.482c14.815-3.687,26.502-15.374,30.189-30.189h286.34    c3.687,14.815,15.374,26.502,30.189,30.189v94.11c-14.815,3.687-26.502,15.373-30.189,30.188H203.888    c0.067-0.919,0.113-1.844,0.113-2.78c0-11.071-4.761-21.048-12.341-28c7.579-6.952,12.341-16.929,12.341-28    c0-20.953-17.047-38-38-38h-56.434V296.482z M20,362.001c0-9.925,8.075-18,18-18h128c9.925,0,18,8.075,18,18s-8.075,18-18,18H38    C28.075,380.001,20,371.926,20,362.001z M20,418.001c0-9.925,8.075-18,18-18h128c9.925,0,18,8.075,18,18s-8.075,18-18,18H38    C28.075,436.001,20,427.926,20,418.001z M64,492.001H38c-9.925,0-18-8.075-18-18s8.075-18,18-18h128c9.925,0,18,8.075,18,18    s-8.075,18-18,18H64z M492,492.001H199.457c2.538-4.699,4.109-9.992,4.46-15.61H492V492.001z"/>
		<path id="XMLID_74_" d="M381.712,353.537h14.244c5.523,0,10-4.477,10-10s-4.477-10-10-10h-14.244c-5.523,0-10,4.477-10,10    S376.189,353.537,381.712,353.537z"/>
		<path id="XMLID_77_" d="M282.624,396.81c29.371,0,53.266-23.898,53.266-53.273s-23.895-53.273-53.266-53.273    s-53.265,23.898-53.265,53.273S253.254,396.81,282.624,396.81z M282.624,310.264c18.343,0,33.266,14.926,33.266,33.273    s-14.923,33.273-33.266,33.273c-18.342,0-33.265-14.926-33.265-33.273S264.282,310.264,282.624,310.264z"/>
		<path id="XMLID_78_" d="M119.56,161.99c2.63,0,5.21-1.06,7.07-2.93c1.86-1.86,2.93-4.44,2.93-7.07s-1.07-5.21-2.93-7.07    s-4.44-2.93-7.07-2.93c-2.63,0-5.21,1.07-7.07,2.93c-1.87,1.87-2.93,4.44-2.93,7.07s1.06,5.21,2.93,7.07    C114.35,160.93,116.93,161.99,119.56,161.99z"/>
	</g>
</g>















</svg>
